<svg width="20" height="20" viewBox="0 0 20 20" fill="none" xmlns="http://www.w3.org/2000/svg">
<circle cx="10" cy="10" r="9.5" fill="white" stroke="#6F7682"/>
<path d="M3.53956 8.90753L3.10756 8.09953H3.07556L3.15556 8.90753V12.5715H2.53156V6.88353H2.88356L5.56356 10.6195L5.97956 11.3875H6.01956L5.93156 10.6195V6.97153H6.55556V12.6595H6.20356L3.53956 8.90753ZM7.91438 6.97153H10.9624V7.56353H8.57838V9.39553H10.7624V9.98753H8.57838V11.9795H11.0024V12.5715H7.91438V6.97153ZM13.2994 10.7235L13.4274 11.6515H13.4354L13.5714 10.7075L14.7234 6.97153H15.0434L16.2034 10.7235L16.3394 11.6515H16.3474L16.4914 10.7075L17.4354 6.97153H18.0834L16.5234 12.6595H16.1554L15.0194 8.90753L14.8754 8.05953H14.8354L14.6914 8.91553L13.5554 12.6595H13.1874L11.5874 6.97153H12.2914L13.2994 10.7235Z" fill="#6F7682"/>
</svg>
