<svg width="80" height="80" viewBox="0 0 80 80" fill="none" xmlns="http://www.w3.org/2000/svg">
<path d="M20 56.6666H60M16.6667 36.6666L23.3333 16.6666H56.6667L63.3334 36.6666H16.6667ZM16.6667 36.6666H63.3334H16.6667ZM16.6667 36.6666V56.6666V36.6666ZM63.3334 36.6666V56.6666V36.6666ZM16.6667 56.6666V63.3333H20V56.6666H16.6667ZM16.6667 56.6666H20H16.6667ZM63.3334 56.6666V63.3333H60V56.6666H63.3334ZM63.3334 56.6666H60H63.3334Z" stroke="#4798DE" stroke-width="3" stroke-linecap="square"/>
<path d="M26.6667 50C28.5076 50 30 48.5077 30 46.6667C30 44.8258 28.5076 43.3334 26.6667 43.3334C24.8257 43.3334 23.3333 44.8258 23.3333 46.6667C23.3333 48.5077 24.8257 50 26.6667 50Z" stroke="#4798DE" stroke-width="3" stroke-linecap="square"/>
<path d="M53.3333 50C55.1743 50 56.6667 48.5077 56.6667 46.6667C56.6667 44.8258 55.1743 43.3334 53.3333 43.3334C51.4924 43.3334 50 44.8258 50 46.6667C50 48.5077 51.4924 50 53.3333 50Z" stroke="#4798DE" stroke-width="3" stroke-linecap="square"/>
</svg>
