<?xml version="1.0" encoding="UTF-8"?>
<svg width="30px" height="30px" viewBox="0 0 30 30" version="1.1" xmlns="http://www.w3.org/2000/svg" xmlns:xlink="http://www.w3.org/1999/xlink">
    <!-- Generator: Sketch 49.1 (51147) - http://www.bohemiancoding.com/sketch -->
    <title>Shower-1</title>
    <desc>Created with Sketch.</desc>
    <defs></defs>
    <g id="Page-1" stroke="none" stroke-width="1" fill="none" fill-rule="evenodd">
        <g id="Artboard" transform="translate(-243.000000, -309.000000)" fill="#000000" fill-rule="nonzero">
            <g id="Shower-1" transform="translate(243.000000, 309.000000)">
                <path d="M26.109017,15.5 C25.809017,15.5 25.609017,15.3 25.609017,15 L25.609017,2.3 C25.609017,1.6 25.009017,1 24.309017,1 C24.009017,1 23.609017,1.1 23.409017,1.4 L21.909017,3.3 C21.709017,3.5 21.409017,3.6 21.209017,3.4 C21.009017,3.2 20.909017,2.9 21.109017,2.7 L22.609017,0.7 C23.109017,0.2 23.609017,0 24.209017,0 C25.509017,0 26.509017,1 26.509017,2.3 L26.509017,15 C26.609017,15.3 26.409017,15.5 26.109017,15.5 Z" id="Shape"></path>
                <path d="M21.5,8 C21.4,8 21.2,7.9 21.1,7.9 L17.1,3.9 C17,3.8 17,3.6 17,3.4 C17,3.2 17.2,3.1 17.3,3 L20.8,2 C21,2 21.2,2 21.3,2.1 L22.8,3.6 C23,3.8 23,4 23,4.2 L22,7.7 C22,7.9 21.8,8 21.6,8 C21.6,8 21.5,8 21.5,8 Z M18.5,3.8 L21.3,6.6 L22,4.2 L20.9,3.1 L18.5,3.8 Z" id="Shape"></path>
                <path d="M13.5,9.2 C13.4,9.2 13.2,9.2 13.1,9.1 C12.9,8.9 12.9,8.6 13.1,8.4 L14.1,7.4 C14.3,7.2 14.6,7.2 14.8,7.4 C15,7.6 15,7.9 14.8,8.1 L13.8,9.1 C13.8,9.2 13.6,9.2 13.5,9.2 Z" id="Shape"></path>
                <path d="M15.5,12.2 C15.4,12.2 15.2,12.2 15.1,12.1 C14.9,11.9 14.9,11.6 15.1,11.4 L16.1,10.4 C16.3,10.2 16.6,10.2 16.8,10.4 C17,10.6 17,10.9 16.8,11.1 L15.8,12.1 C15.8,12.2 15.6,12.2 15.5,12.2 Z" id="Shape"></path>
                <path d="M17.55,7.95 C17.45,7.95 17.25,7.95 17.15,7.85 C16.95,7.65 16.95,7.35 17.15,7.15 L18.15,6.15 C18.35,5.95 18.65,5.95 18.85,6.15 C19.05,6.35 19.05,6.65 18.85,6.85 L17.85,7.85 C17.85,7.95 17.65,7.95 17.55,7.95 Z" id="Shape"></path>
                <path d="M22.9,27.7 L7.1,27.7 C5.2,27.7 3.5,26.4 3,24.6 L1,18.3 C0.9,18 1.1,17.8 1.3,17.7 C1.6,17.6 1.8,17.8 1.9,18 L3.9,24.3 C4.3,25.7 5.6,26.7 7,26.7 L22.8,26.7 C24.2,26.7 25.5,25.7 25.9,24.3 L27.9,18 C28,17.7 28.3,17.6 28.5,17.7 C28.8,17.8 28.9,18.1 28.8,18.3 L26.8,24.6 C26.5,26.5 24.8,27.7 22.9,27.7 Z" id="Shape"></path>
                <path d="M7.1,25.7 C6.1,25.7 5.2,25 4.9,24 L3.7,20.3 C3.6,20 3.8,19.8 4,19.7 C4.3,19.6 4.5,19.8 4.6,20 L5.8,23.7 C6,24.3 6.5,24.7 7,24.7 C7.3,24.7 7.5,24.9 7.5,25.2 C7.5,25.5 7.4,25.7 7.1,25.7 Z" id="Shape"></path>
                <path d="M6.5,29.7 C6.4,29.7 6.3,29.7 6.3,29.6 C6,29.6 5.9,29.3 6.1,29 L7.1,27 C7.2,26.8 7.5,26.7 7.8,26.8 C8,26.9 8.1,27.2 8,27.5 L7,29.5 C6.9,29.6 6.7,29.7 6.5,29.7 Z" id="Shape"></path>
                <path d="M23.5,29.7 C23.3,29.7 23.1,29.6 23.1,29.4 L22.1,27.4 C22,27.2 22.1,26.9 22.3,26.7 C22.5,26.6 22.8,26.7 23,26.9 L24,28.9 C24.1,29.1 24,29.4 23.8,29.6 C23.7,29.7 23.6,29.7 23.5,29.7 Z" id="Shape"></path>
                <path d="M28.5,18.7 L1.5,18.7 C0.7,18.7 0,18 0,17.2 L0,16.2 C0,15.4 0.7,14.7 1.5,14.7 L28.5,14.7 C29.3,14.7 30,15.4 30,16.2 L30,17.2 C30,18.1 29.3,18.7 28.5,18.7 Z M1.5,15.7 C1.2,15.7 1,16 1,16.2 L1,17.2 C1,17.5 1.2,17.7 1.5,17.7 L28.5,17.7 C28.8,17.7 29,17.5 29,17.2 L29,16.2 C29,15.9 28.8,15.7 28.5,15.7 L1.5,15.7 Z" id="Shape"></path>
            </g>
        </g>
    </g>
</svg>