<svg width="18" height="18" viewBox="0 0 18 18" fill="none" xmlns="http://www.w3.org/2000/svg">
<path d="M9.21619 4.0271C11.7547 4.74296 12.8686 5.66361 13.9729 8.78386" stroke="#6CDB7E"/>
<path d="M9.64865 1C13.8046 2.24486 15.5957 3.62443 17 8.35135" stroke="#6CDB7E"/>
<path d="M1.36701 3.6599L2.49543 2.53148C2.86982 2.15708 3.47116 2.13941 3.8669 2.49118L6.33012 4.68071C6.73362 5.03937 6.77959 5.65356 6.43397 6.0683L5.40832 7.29908C5.10695 7.66073 5.09784 8.18429 5.39031 8.55317C6.80781 10.341 7.85744 11.4817 9.85609 12.7176C10.2397 12.9548 10.7348 12.8867 11.0537 12.5678L11.5361 12.0854C11.9267 11.6948 12.5598 11.6948 12.9503 12.0854L14.9956 14.1306C15.3861 14.5211 15.3861 15.1543 14.9956 15.5448L13.952 16.5885C13.6976 16.8428 13.3234 16.9409 12.9776 16.8419C5.30428 14.6432 2.47876 11.9302 1.09275 4.54058C1.03276 4.22075 1.13691 3.89 1.36701 3.6599Z" stroke="#6CDB7E"/>
</svg>
