<?xml version="1.0" encoding="iso-8859-1"?>
<!-- Generator: Adobe Illustrator 18.0.0, SVG Export Plug-In . SVG Version: 6.00 Build 0)  -->
<!DOCTYPE svg PUBLIC "-//W3C//DTD SVG 1.1//EN" "http://www.w3.org/Graphics/SVG/1.1/DTD/svg11.dtd">
<svg xmlns="http://www.w3.org/2000/svg" xmlns:xlink="http://www.w3.org/1999/xlink" version="1.1" id="Layer_1" x="0px" y="0px" viewBox="0 0 512 512" style="enable-background:new 0 0 512 512;" xml:space="preserve" width="512" height="512">
<path d="M93.999,366c-5.091,0-10.183-1.932-14.083-5.8l-62.162-61.653C6.305,287.191,0,272.082,0,256.001  c0-16.082,6.305-31.192,17.754-42.547L79.916,151.8c7.844-7.779,20.509-7.725,28.284,0.116c7.778,7.843,7.727,20.506-0.116,28.284  l-62.162,61.653C42.103,245.641,40,250.666,40,256c0,5.335,2.103,10.359,5.922,14.146l62.162,61.653  c7.843,7.778,7.895,20.441,0.116,28.284C104.29,364.026,99.146,366,93.999,366z M432.084,360.2l62.162-61.653  C505.695,287.191,512,272.082,512,256.001c0-16.082-6.305-31.192-17.754-42.548L432.084,151.8  c-7.844-7.779-20.506-7.726-28.284,0.116c-7.778,7.843-7.727,20.506,0.116,28.284l62.162,61.653  C469.897,245.641,472,250.666,472,256c0,5.335-2.103,10.359-5.922,14.146L403.916,331.8c-7.843,7.778-7.895,20.441-0.116,28.284  c3.91,3.942,9.054,5.916,14.201,5.916C423.091,366,428.185,364.068,432.084,360.2z M326,255c0-38.598-31.402-70-70-70  s-70,31.402-70,70c0,38.598,31.402,70,70,70S326,293.598,326,255z M286,255c0,16.542-13.458,30-30,30s-30-13.458-30-30  s13.458-30,30-30S286,238.458,286,255z"/>



</svg>
