<svg width="30" height="30" viewBox="0 0 30 30" fill="none" xmlns="http://www.w3.org/2000/svg">
<path d="M7.5 7.5H26.2499L24.3749 18.75H9.37499L7.5 7.5Z" stroke="#4798DE" stroke-width="2" stroke-linecap="square"/>
<path d="M11.2499 25C11.9403 25 12.4999 24.4404 12.4999 23.75C12.4999 23.0596 11.9403 22.5 11.2499 22.5C10.5596 22.5 9.99994 23.0596 9.99994 23.75C9.99994 24.4404 10.5596 25 11.2499 25Z" stroke="#4798DE" stroke-width="2" stroke-linecap="square"/>
<path d="M22.4999 25C23.1903 25 23.7499 24.4404 23.7499 23.75C23.7499 23.0596 23.1903 22.5 22.4999 22.5C21.8096 22.5 21.2499 23.0596 21.2499 23.75C21.2499 24.4404 21.8096 25 22.4999 25Z" stroke="#4798DE" stroke-width="2" stroke-linecap="square"/>
<path d="M7.49998 7.5H3.75" stroke="#4798DE" stroke-width="2" stroke-linecap="square"/>
</svg>
