<svg width="18" height="18" viewBox="0 0 18 18" fill="none" xmlns="http://www.w3.org/2000/svg">
<path d="M9.2168 4.16089C11.7553 4.87678 12.8692 5.79746 13.9736 8.91783" stroke="#6CDB7E"/>
<path d="M9.64783 1.1333C13.8037 2.37821 15.5949 3.75784 16.9991 8.48494" stroke="#6CDB7E"/>
<path d="M1.36699 3.79305L2.49541 2.66458C2.86981 2.29016 3.47117 2.27249 3.86691 2.62427L6.33016 4.81391C6.73364 5.17257 6.77961 5.78674 6.43401 6.20148L5.40829 7.43239C5.10693 7.79403 5.09783 8.31757 5.39028 8.68645C6.80779 10.4744 7.85742 11.6151 9.85606 12.851C10.2397 13.0883 10.7348 13.0202 11.0537 12.7013L11.5361 12.2188C11.9266 11.8283 12.5598 11.8283 12.9504 12.2188L14.9956 14.2642C15.3861 14.6547 15.3861 15.2879 14.9956 15.6784L13.952 16.7221C13.6976 16.9764 13.3234 17.0746 12.9776 16.9755C5.30426 14.7768 2.47875 12.0636 1.09274 4.67371C1.03276 4.35389 1.1369 4.02314 1.36699 3.79305Z" stroke="#6CDB7E"/>
</svg>
