<svg width="20" height="20" viewBox="0 0 20 20" fill="none" xmlns="http://www.w3.org/2000/svg">
<path d="M4.58337 16.25C6.52782 15.4167 7.77782 14.7222 8.33337 14.1667C9.16671 13.3333 6.66671 13.3333 6.66671 9.16667C6.66671 6.38889 7.77782 5 10 5C12.2223 5 13.3334 6.38889 13.3334 9.16667C13.3334 13.3333 10.8334 13.3333 11.6667 14.1667C12.2223 14.7222 13.4723 15.4167 15.4167 16.25" stroke="#4798DE" stroke-linecap="round"/>
<path d="M9.99996 18.3334C14.6023 18.3334 18.3333 14.6025 18.3333 10.0001C18.3333 5.39771 14.6023 1.66675 9.99996 1.66675C5.39759 1.66675 1.66663 5.39771 1.66663 10.0001C1.66663 14.6025 5.39759 18.3334 9.99996 18.3334Z" stroke="#4798DE" stroke-linecap="square"/>
</svg>
