<svg width="14" height="15" viewBox="0 0 14 15" fill="none" xmlns="http://www.w3.org/2000/svg">
<rect x="0.5" y="0.5" width="13" height="7.52174" rx="0.5" stroke="#6F7682"/>
<path d="M1.75 4.86963H5.25" stroke="#6F7682"/>
<path d="M7.58398 7.91316V4.26099" stroke="#6F7682"/>
<path d="M11.084 7.91316V4.26099" stroke="#6F7682"/>
<path d="M7.58398 4.29195C7.58398 2.4656 11.084 2.46512 11.084 4.29195" stroke="#6F7682"/>
<path d="M8.16732 7.91309C7.76246 9.29867 7.58398 9.13048 8.16732 10.9566C8.75065 12.7827 8.48392 13.2741 7.58398 14" stroke="#6F7682" stroke-width="0.8"/>
<path d="M9.33333 7.91309C8.92847 9.29867 8.75 9.13048 9.33333 10.9566C9.91667 12.7827 9.64994 13.2741 8.75 14" stroke="#6F7682" stroke-width="0.8"/>
<path d="M10.4993 7.91309C10.0945 9.29867 9.91602 9.13048 10.4993 10.9566C11.0827 12.7827 10.816 13.2741 9.91602 14" stroke="#6F7682" stroke-width="0.8"/>
</svg>
