<svg width="15" height="15" viewBox="0 0 15 15" fill="none" xmlns="http://www.w3.org/2000/svg">
<path d="M3.14624 7.94065C3.13174 7.79573 3.12432 7.64873 3.12432 7.5C3.12432 7.35127 3.13174 7.20427 3.14624 7.05935L2.00293 5.77003L3.25293 3.60497L4.94118 3.95044C5.17888 3.77883 5.43451 3.63051 5.70471 3.50883L6.24932 1.875H8.74932L9.29393 3.50883C9.56414 3.63051 9.81977 3.77883 10.0575 3.95044L11.7457 3.60497L12.9957 5.77003L11.8524 7.05935C11.8669 7.20427 11.8743 7.35127 11.8743 7.5C11.8743 7.64873 11.8669 7.79573 11.8524 7.94065L12.9957 9.22997L11.7457 11.395L10.0575 11.0496C9.81977 11.2212 9.56414 11.3695 9.29393 11.4912L8.74932 13.125H6.24932L5.70471 11.4912C5.43451 11.3695 5.17888 11.2212 4.94118 11.0496L3.25293 11.395L2.00293 9.22997L3.14624 7.94065Z" stroke="#6F7682" stroke-linecap="square"/>
<path d="M7.5 8.12524C7.84518 8.12524 8.125 7.84542 8.125 7.50024C8.125 7.15507 7.84518 6.87524 7.5 6.87524C7.15482 6.87524 6.875 7.15507 6.875 7.50024C6.875 7.84542 7.15482 8.12524 7.5 8.12524Z" stroke="#6F7682" stroke-linecap="square"/>
</svg>
