<svg width="14" height="14" viewBox="0 0 14 14" fill="none" xmlns="http://www.w3.org/2000/svg">
<path d="M7.31519 2.00113C7.66956 1.71653 7.9934 1.48643 8.57839 1.69392L10.4732 3.68521C10.6341 4.0034 10.6401 4.15122 10.4732 4.34915C10.1817 5.00496 10.0154 5.25418 9.84158 5.01308L6.68359 1.69448" stroke="#6F7682"/>
<path d="M11.7372 8.33447H1L2.2632 11.6542C2.93508 12.841 3.71355 13.074 5.42119 12.982" stroke="#6F7682"/>
<path d="M4.78906 12.9833H12.3682C12.4481 13.0053 12.9687 13.1088 12.9998 12.3193V2.36027C12.8231 1.31079 12.6226 0.940091 11.7366 1.03239" stroke="#6F7682"/>
<path d="M12.3692 1.03233C11.5798 0.913685 11.0682 1.07054 9.84277 2.36021" stroke="#6F7682"/>
</svg>
