<svg width="80" height="80" viewBox="0 0 80 80" fill="none" xmlns="http://www.w3.org/2000/svg">
<path d="M20 20H70L65 50H25L20 20Z" stroke="#4798DE" stroke-width="3" stroke-linecap="square"/>
<path d="M29.9993 66.6667C31.8403 66.6667 33.3327 65.1743 33.3327 63.3333C33.3327 61.4924 31.8403 60 29.9993 60C28.1584 60 26.666 61.4924 26.666 63.3333C26.666 65.1743 28.1584 66.6667 29.9993 66.6667Z" stroke="#4798DE" stroke-width="3" stroke-linecap="square"/>
<path d="M59.9994 66.6667C61.8403 66.6667 63.3327 65.1743 63.3327 63.3333C63.3327 61.4924 61.8403 60 59.9994 60C58.1584 60 56.666 61.4924 56.666 63.3333C56.666 65.1743 58.1584 66.6667 59.9994 66.6667Z" stroke="#4798DE" stroke-width="3" stroke-linecap="square"/>
<path d="M20 20H10" stroke="#4798DE" stroke-width="3" stroke-linecap="square"/>
</svg>
