<?xml version="1.0" encoding="UTF-8" standalone="no"?>
<!-- Generator: Adobe Illustrator 19.0.0, SVG Export Plug-In . SVG Version: 6.00 Build 0)  -->

<svg
   xmlns:dc="http://purl.org/dc/elements/1.1/"
   xmlns:cc="http://creativecommons.org/ns#"
   xmlns:rdf="http://www.w3.org/1999/02/22-rdf-syntax-ns#"
   xmlns:svg="http://www.w3.org/2000/svg"
   xmlns="http://www.w3.org/2000/svg"
   xmlns:sodipodi="http://sodipodi.sourceforge.net/DTD/sodipodi-0.dtd"
   xmlns:inkscape="http://www.inkscape.org/namespaces/inkscape"
   version="1.1"
   id="Capa_1"
   x="0px"
   y="0px"
   viewBox="0 0 51.997 51.997"
   style="enable-background:new 0 0 51.997 51.997;"
   xml:space="preserve"
   sodipodi:docname="big-bookmark.svg"
   inkscape:version="0.92.2 (5c3e80d, 2017-08-06)"><metadata
     id="metadata895"><rdf:RDF><cc:Work
         rdf:about=""><dc:format>image/svg+xml</dc:format><dc:type
           rdf:resource="http://purl.org/dc/dcmitype/StillImage" /><dc:title></dc:title></cc:Work></rdf:RDF></metadata><defs
     id="defs893" /><sodipodi:namedview
     pagecolor="#ffffff"
     bordercolor="#666666"
     borderopacity="1"
     objecttolerance="10"
     gridtolerance="10"
     guidetolerance="10"
     inkscape:pageopacity="0"
     inkscape:pageshadow="2"
     inkscape:window-width="1920"
     inkscape:window-height="1057"
     id="namedview891"
     showgrid="false"
     inkscape:zoom="8.5389539"
     inkscape:cx="12.539419"
     inkscape:cy="49.462977"
     inkscape:window-x="-8"
     inkscape:window-y="-8"
     inkscape:window-maximized="1"
     inkscape:current-layer="Capa_1" /><g
     id="g858"
     style="stroke:#000000;stroke-width:0.79857022;stroke-miterlimit:4;stroke-dasharray:none;stroke-opacity:1"
     transform="matrix(0.98493954,0,0,0.98493954,0.39305449,0.76437864)"><path
       d="M 51.911,16.242 C 51.152,7.888 45.239,1.827 37.839,1.827 32.909,1.827 28.395,4.48 25.855,8.732 23.338,4.425 19.009,1.826 14.158,1.826 6.759,1.826 0.845,7.887 0.087,16.241 c -0.06,0.369 -0.306,2.311 0.442,5.478 1.078,4.568 3.568,8.723 7.199,12.013 L 25.843,50.171 44.269,33.733 c 3.631,-3.291 6.121,-7.445 7.199,-12.014 0.748,-3.166 0.502,-5.108 0.443,-5.477 z m -2.39,5.019 c -0.984,4.172 -3.265,7.973 -6.59,10.985 L 25.855,47.481 9.072,32.25 C 5.741,29.232 3.461,25.432 2.476,21.26 1.768,18.263 2.059,16.57 2.06,16.559 L 2.075,16.458 C 2.725,9.139 7.806,3.826 14.158,3.826 c 4.687,0 8.813,2.88 10.771,7.515 l 0.921,2.183 0.921,-2.183 c 1.927,-4.564 6.271,-7.514 11.069,-7.514 6.351,0 11.433,5.313 12.096,12.727 0.002,0.016 0.293,1.71 -0.415,4.707 z"
       id="path856"
       style="stroke:#000000;stroke-width:0.79857022;stroke-miterlimit:4;stroke-dasharray:none;stroke-opacity:1"
       inkscape:connector-curvature="0" /></g><g
     id="g860" /><g
     id="g862" /><g
     id="g864" /><g
     id="g866" /><g
     id="g868" /><g
     id="g870" /><g
     id="g872" /><g
     id="g874" /><g
     id="g876" /><g
     id="g878" /><g
     id="g880" /><g
     id="g882" /><g
     id="g884" /><g
     id="g886" /><g
     id="g888" /></svg>