<?xml version="1.0" encoding="iso-8859-1"?>
<!-- Generator: Adobe Illustrator 19.0.0, SVG Export Plug-In . SVG Version: 6.00 Build 0)  -->
<svg version="1.1" id="Layer_1" xmlns="http://www.w3.org/2000/svg" xmlns:xlink="http://www.w3.org/1999/xlink" x="0px" y="0px"
	 viewBox="0 0 512 512" style="enable-background:new 0 0 512 512;" xml:space="preserve">
<polygon style="fill:#35D8B9;" points="206.811,117.802 212.027,163.828 195.042,163.828 178.056,163.828 183.283,117.802 "/>
<polygon style="fill:#F4550F;" points="328.723,117.802 333.94,163.828 316.954,163.828 299.969,163.828 305.196,117.802 "/>
<path style="fill:#F2F2F2;" d="M425.234,195.936c4.263,4.263,6.904,10.158,6.904,16.668c0,13.019-10.553,23.572-23.572,23.572
	h-1.359h-302.42h-1.359c-6.509,0-12.405-2.641-16.668-6.904c-4.263-4.263-6.904-10.158-6.904-16.668
	c0-13.019,10.553-23.572,23.572-23.572h91.613h43.626h35.067h43.22h91.613C415.076,189.032,420.972,191.673,425.234,195.936z"/>
<g>
	<path style="fill:#CCCCCC;" d="M163.142,212.604c0-13.019,10.553-23.572,23.572-23.572h-83.284
		c-13.019,0-23.572,10.553-23.572,23.572c0,6.509,2.641,12.405,6.904,16.668s10.158,6.904,16.668,6.904h1.359h81.925
		c-6.509,0-12.405-2.641-16.668-6.904C165.783,225.008,163.142,219.113,163.142,212.604z"/>
	<path style="fill:#CCCCCC;" d="M407.208,236.175c0,62.189-37.544,115.611-91.207,138.832
		c-18.388,7.967-38.683,12.372-59.997,12.372c-21.325,0-41.609-4.416-60.008-12.372c-53.663-23.232-91.207-76.654-91.207-138.832
		L407.208,236.175L407.208,236.175z"/>
</g>
<path style="fill:#F2F2F2;" d="M407.043,236.175c-1.644,6.005-3.627,11.857-5.907,17.533
	c-13.972,34.629-39.407,62.397-70.978,77.465c-16.679,7.967-35.089,12.372-54.431,12.372c-19.353,0-37.752-4.416-54.441-12.372
	c-31.571-15.068-57.006-42.837-70.978-77.465c-2.279-5.676-4.263-11.528-5.907-17.533L407.043,236.175L407.043,236.175z"/>
<g>
	<path style="fill:#CCCCCC;" d="M407.043,236.175c-1.644,6.005-3.627,11.857-5.907,17.533H150.309
		c-2.279-5.676-4.263-11.528-5.907-17.533H407.043z"/>
	<path style="fill:#CCCCCC;" d="M316.001,375.008l-11.43,128.773h-97.147l-11.43-128.773c18.399,7.956,38.683,12.372,60.008,12.372
		C277.317,387.38,297.612,382.974,316.001,375.008z"/>
</g>
<path style="fill:#F2F2F2;" d="M316.001,375.008l-7.881,128.773h-66.985l-7.881-121.102c12.687,7.956,26.673,4.701,41.377,4.701
	C289.328,387.38,303.322,382.974,316.001,375.008z"/>
<path style="fill:#E6E6E6;" d="M273.734,60.27v128.762h-35.067V60.27c0-9.369-7.616-16.986-16.986-16.986
	c-9.359,0-16.986,7.616-16.986,16.986v20.273h-35.067V60.27c0-28.7,23.352-52.053,52.053-52.053S273.734,31.57,273.734,60.27z"/>
<g>
	<path style="fill:#FFFFFF;" d="M305.115,358.09c-3.178,0-6.205-1.854-7.547-4.957c-1.804-4.165,0.113-9.005,4.278-10.807
		c30.523-13.207,53.897-38.905,64.13-70.502c1.398-4.319,6.039-6.682,10.35-5.286c4.319,1.398,6.686,6.033,5.286,10.351
		c-11.688,36.091-38.383,65.44-73.24,80.524C307.311,357.873,306.204,358.09,305.115,358.09z"/>
	<path style="fill:#FFFFFF;" d="M387.505,220.822h-37.259c-4.54,0-8.219-3.68-8.219-8.219s3.679-8.219,8.219-8.219h37.259
		c4.54,0,8.219,3.68,8.219,8.219S392.045,220.822,387.505,220.822z"/>
</g>
<path style="fill:#333333;" d="M440.36,212.602c0-17.528-14.26-31.788-31.788-31.788h-83.397v-8.767h8.767
	c2.342,0,4.571-0.998,6.13-2.744c1.561-1.747,2.301-4.074,2.036-6.401l-5.221-46.025c-0.471-4.154-3.986-7.293-8.166-7.293H305.19
	c-4.181,0-7.695,3.138-8.166,7.293l-5.221,46.025c-0.264,2.326,0.477,4.654,2.036,6.401c1.559,1.746,3.788,2.744,6.13,2.744h8.767
	v8.767h-26.782V60.271C281.954,27.038,254.916,0,221.683,0s-60.271,27.038-60.271,60.271v20.273c0,4.539,3.679,8.219,8.219,8.219
	h35.067c4.54,0,8.219-3.68,8.219-8.219V60.271c0-4.834,3.933-8.767,8.767-8.767c4.834,0,8.767,3.933,8.767,8.767v120.543h-27.188
	v-8.767h8.767c2.342,0,4.571-0.998,6.13-2.744c1.56-1.747,2.301-4.074,2.036-6.401l-5.221-46.025
	c-0.471-4.154-3.986-7.293-8.166-7.293h-23.531c-4.181,0-7.695,3.138-8.166,7.293l-5.221,46.025
	c-0.264,2.326,0.477,4.654,2.036,6.401c1.559,1.746,3.788,2.744,6.13,2.744h8.767v8.767h-83.395
	c-17.528,0-31.788,14.26-31.788,31.788c0,15.239,10.781,28.002,25.115,31.078c2.819,60.486,39.501,112.265,91.476,136.776
	l11.01,124.052c0.377,4.241,3.93,7.492,8.187,7.492h97.147c4.257,0,7.81-3.251,8.187-7.492l11.009-124.052
	c51.975-24.511,88.657-76.289,91.476-136.776C429.579,240.605,440.36,227.841,440.36,212.602z M312.53,126.022h8.852l3.357,29.588
	h-15.564L312.53,126.022z M190.618,126.022h8.852l3.357,29.588h-15.564L190.618,126.022z M221.684,35.067
	c-13.899,0-25.204,11.307-25.204,25.204v12.054H177.85V60.271c0-24.17,19.664-43.834,43.834-43.834s43.834,19.664,43.834,43.834
	v120.543h-18.629V60.271C246.888,46.374,235.582,35.067,221.684,35.067z M297.051,495.562h-82.103l-9.605-108.216
	C221.265,392.696,238.3,395.6,256,395.6s34.734-2.904,50.655-8.253L297.051,495.562z M256,379.162
	c-76.086,0-138.475-59.737-142.749-134.771h285.496C394.474,319.425,332.087,379.162,256,379.162z M408.572,227.953H103.428
	c-8.464,0-15.351-6.886-15.351-15.351s6.886-15.351,15.351-15.351h135.241h35.067h134.836c8.464,0,15.351,6.886,15.351,15.351
	S417.036,227.953,408.572,227.953z"/>
<g>
</g>
<g>
</g>
<g>
</g>
<g>
</g>
<g>
</g>
<g>
</g>
<g>
</g>
<g>
</g>
<g>
</g>
<g>
</g>
<g>
</g>
<g>
</g>
<g>
</g>
<g>
</g>
<g>
</g>
</svg>
