<svg width="80" height="80" viewBox="0 0 80 80" fill="none" xmlns="http://www.w3.org/2000/svg">
<path d="M13.3333 56.6667H6.66666V23.3334H50V56.6667H26.6667" stroke="#4798DE" stroke-width="3" stroke-linecap="square"/>
<path d="M66.6667 56.6667H73.3333V41.852L66.6667 30H50V56.6667H53.3333" stroke="#4798DE" stroke-width="3" stroke-linecap="square"/>
<path d="M20 63.3333C23.6819 63.3333 26.6667 60.3486 26.6667 56.6667C26.6667 52.9848 23.6819 50 20 50C16.3181 50 13.3333 52.9848 13.3333 56.6667C13.3333 60.3486 16.3181 63.3333 20 63.3333Z" stroke="#4798DE" stroke-width="3" stroke-linecap="square"/>
<path d="M60 63.3333C63.6819 63.3333 66.6667 60.3486 66.6667 56.6667C66.6667 52.9848 63.6819 50 60 50C56.3181 50 53.3333 52.9848 53.3333 56.6667C53.3333 60.3486 56.3181 63.3333 60 63.3333Z" stroke="#4798DE" stroke-width="3" stroke-linecap="square"/>
</svg>
