<?xml version="1.0" encoding="UTF-8" standalone="no"?>
<!-- Generator: Adobe Illustrator 19.1.0, SVG Export Plug-In . SVG Version: 6.00 Build 0)  -->

<svg
   xmlns:dc="http://purl.org/dc/elements/1.1/"
   xmlns:cc="http://creativecommons.org/ns#"
   xmlns:rdf="http://www.w3.org/1999/02/22-rdf-syntax-ns#"
   xmlns:svg="http://www.w3.org/2000/svg"
   xmlns="http://www.w3.org/2000/svg"
   xmlns:sodipodi="http://sodipodi.sourceforge.net/DTD/sodipodi-0.dtd"
   xmlns:inkscape="http://www.inkscape.org/namespaces/inkscape"
   version="1.1"
   id="Capa_1"
   x="0px"
   y="0px"
   viewBox="0 0 471.701 471.701"
   style="enable-background:new 0 0 471.701 471.701;"
   xml:space="preserve"
   sodipodi:docname="d.svg"
   inkscape:version="0.92.2 (5c3e80d, 2017-08-06)"><metadata
     id="metadata907"><rdf:RDF><cc:Work
         rdf:about=""><dc:format>image/svg+xml</dc:format><dc:type
           rdf:resource="http://purl.org/dc/dcmitype/StillImage" /><dc:title></dc:title></cc:Work></rdf:RDF></metadata><defs
     id="defs905" /><sodipodi:namedview
     pagecolor="#ffffff"
     bordercolor="#666666"
     borderopacity="1"
     objecttolerance="10"
     gridtolerance="10"
     guidetolerance="10"
     inkscape:pageopacity="0"
     inkscape:pageshadow="2"
     inkscape:window-width="1920"
     inkscape:window-height="1057"
     id="namedview903"
     showgrid="false"
     inkscape:zoom="0.50031695"
     inkscape:cx="271.82769"
     inkscape:cy="235.85049"
     inkscape:window-x="-8"
     inkscape:window-y="-8"
     inkscape:window-maximized="1"
     inkscape:current-layer="Capa_1" /><g
     id="g870"
     style="stroke:none;stroke-opacity:1;fill:#444444;fill-opacity:1"><path
       d="M433.601,67.001c-24.7-24.7-57.4-38.2-92.3-38.2s-67.7,13.6-92.4,38.3l-12.9,12.9l-13.1-13.1   c-24.7-24.7-57.6-38.4-92.5-38.4c-34.8,0-67.6,13.6-92.2,38.2c-24.7,24.7-38.3,57.5-38.2,92.4c0,34.9,13.7,67.6,38.4,92.3   l187.8,187.8c2.6,2.6,6.1,4,9.5,4c3.4,0,6.9-1.3,9.5-3.9l188.2-187.5c24.7-24.7,38.3-57.5,38.3-92.4   C471.801,124.501,458.301,91.701,433.601,67.001z M414.401,232.701l-178.7,178l-178.3-178.3c-19.6-19.6-30.4-45.6-30.4-73.3   s10.7-53.7,30.3-73.2c19.5-19.5,45.5-30.3,73.1-30.3c27.7,0,53.8,10.8,73.4,30.4l22.6,22.6c5.3,5.3,13.8,5.3,19.1,0l22.4-22.4   c19.6-19.6,45.7-30.4,73.3-30.4c27.6,0,53.6,10.8,73.2,30.3c19.6,19.6,30.3,45.6,30.3,73.3   C444.801,187.101,434.001,213.101,414.401,232.701z"
       id="path868"
       style="stroke:none;stroke-opacity:1;fill:#444444;fill-opacity:1" /></g><g
     id="g872" /><g
     id="g874" /><g
     id="g876" /><g
     id="g878" /><g
     id="g880" /><g
     id="g882" /><g
     id="g884" /><g
     id="g886" /><g
     id="g888" /><g
     id="g890" /><g
     id="g892" /><g
     id="g894" /><g
     id="g896" /><g
     id="g898" /><g
     id="g900" /><path
     style="opacity:1;fill:#444444;fill-opacity:1;stroke:none;stroke-width:5.19670582;stroke-linecap:round;stroke-linejoin:round;stroke-miterlimit:4;stroke-dasharray:none;stroke-dashoffset:0;stroke-opacity:1"
     d="M 139.94444,312.52159 C 48.718228,220.90793 43.57752,215.35875 37.596316,202.04111 19.512454,161.77593 28.401221,115.09634 59.711233,85.904069 81.427227,65.656894 102.59039,57.163764 131.32628,57.163764 c 29.85812,0 52.18883,10.562922 80.75666,38.199695 13.93259,13.478511 19.67201,17.764831 23.7873,17.764831 4.11297,0 10.10446,-4.46876 24.78813,-18.488282 28.19109,-26.916 50.8256,-37.476244 80.32548,-37.476244 44.93338,0 85.25438,29.745059 98.23017,72.465026 3.40652,11.21526 3.99025,17.32845 3.25236,34.06146 -0.98472,22.33007 -5.1087,36.06704 -15.48606,51.58385 -3.23097,4.83113 -47.52442,50.39135 -98.42989,101.24496 l -92.55539,92.46109 z"
     id="path1452"
     inkscape:connector-curvature="0" /><path
     style="opacity:1;fill:#444444;fill-opacity:1;stroke:none;stroke-width:5.19670582;stroke-linecap:round;stroke-linejoin:round;stroke-miterlimit:4;stroke-dasharray:none;stroke-dashoffset:0;stroke-opacity:1"
     d="M 140.86142,311.57429 C 54.978171,225.25425 45.244797,214.81282 39.716252,203.07127 21.687751,164.78227 27.60803,122.67386 55.276122,92.400553 76.571917,69.099563 99.67205,58.882085 130.94109,58.932991 c 31.04961,0.05055 49.09973,8.397218 80.31061,37.136928 9.04584,8.329621 18.61729,15.689481 21.2699,16.355241 6.88814,1.72881 11.50893,-0.99355 29.23549,-17.224278 30.12301,-27.581089 48.72803,-36.203559 78.22739,-36.254335 45.08235,-0.0776 81.46107,25.284385 96.8649,67.530833 3.97118,10.89135 4.39899,15.12412 3.6359,35.9742 -1.10324,30.14432 -5.00205,40.73707 -22.40158,60.86325 -7.00596,8.10385 -50.86576,52.76748 -97.46622,99.25249 l -84.72809,84.51825 z"
     id="path1454"
     inkscape:connector-curvature="0" /><path
     style="opacity:1;fill:#444444;fill-opacity:1;stroke:none;stroke-width:5.19670582;stroke-linecap:round;stroke-linejoin:round;stroke-miterlimit:4;stroke-dasharray:none;stroke-dashoffset:0;stroke-opacity:1"
     d="M 131.43891,342.4829 C 62.436348,273.6654 27.995062,237.88293 22.037151,228.82089 -19.515634,165.61874 3.6720387,78.67154 71.274267,44.195658 92.312179,33.466714 105.35679,30.380693 130.11752,30.27485 c 19.06372,-0.08149 24.35865,0.683591 39.83608,5.756051 20.23547,6.631823 40.90206,19.523501 55.9471,34.89943 l 9.83765,10.054019 13.32183,-12.567136 c 16.70641,-15.759971 32.50697,-25.420678 52.96756,-32.385142 13.36185,-4.548171 19.5621,-5.463378 37.95674,-5.602723 37.78315,-0.28622 65.09258,10.898513 92.10926,37.723879 12.69219,12.602295 17.95102,19.681298 24.52049,33.007442 18.88609,38.31035 18.91887,77.2154 0.0977,115.90173 -8.18087,16.81548 -9.33106,18.05726 -112.46831,121.42303 -67.34075,67.48996 -105.59942,104.4338 -108.15058,104.4338 -2.54265,0 -39.79065,-35.74684 -104.65411,-100.43633 z M 331.4761,316.49937 c 80.19406,-79.80805 95.85939,-96.3234 101.10894,-106.59534 16.23557,-31.76847 16.54624,-70.04402 0.80861,-99.62421 -7.54873,-14.188482 -30.99839,-37.255126 -44.44021,-43.71436 -31.49331,-15.133563 -64.24751,-15.096526 -95.54423,0.108032 -7.39076,3.590576 -17.84837,11.947748 -30.3227,24.232313 -13.46221,13.257415 -15.23466,15.445415 -6.04945,7.46767 35.75038,-31.050647 53.37587,-39.442383 82.86254,-39.451999 44.86466,-0.01459 81.16463,25.048613 96.71093,66.773874 3.38656,9.08932 4.30489,15.94094 4.28625,31.97972 -0.0268,22.98743 -3.09274,37.06665 -11.08898,50.92069 -3.32795,5.76587 -42.26432,46.4224 -99.61051,104.01108 l -94.14692,94.54507 -94.97469,-95.54444 C 72.554454,242.67519 44.5945,213.23125 40.692317,205.89622 11.968663,151.90359 40.139422,83.034862 99.069228,63.182846 c 17.511702,-5.899264 46.584102,-5.97128 63.128542,-0.15638 13.67557,4.806575 29.70516,15.025109 43.84644,27.951209 19.85949,18.152925 21.65201,18.470295 3.80591,0.673839 C 197.67264,79.507916 187.58496,71.447451 179.38324,67.307234 124.72399,39.715334 62.336523,60.51721 35.996916,115.11659 c -9.626728,19.95524 -12.046,49.75935 -5.796544,71.41021 7.899127,27.36605 9.527235,29.29457 109.725868,129.97257 51.69476,51.94207 94.58952,94.44014 95.3217,94.44014 0.73217,0 44.03484,-42.49807 96.22816,-94.44014 z M 241.73774,111.62924 c 0.50956,-0.82448 -2.04976,-1.49905 -5.68737,-1.49905 -3.63762,0 -6.19693,0.67457 -5.68738,1.49905 0.50956,0.82448 3.06888,1.49905 5.68738,1.49905 2.6185,0 5.17782,-0.67457 5.68737,-1.49905 z"
     id="path1456"
     inkscape:connector-curvature="0" /><path
     style="opacity:1;fill:#444444;fill-opacity:1;stroke:none;stroke-width:5.19670582;stroke-linecap:round;stroke-linejoin:round;stroke-miterlimit:4;stroke-dasharray:none;stroke-dashoffset:0;stroke-opacity:1"
     d="M 131.49839,342.4829 C 76.142575,287.24292 27.230822,236.78152 22.80561,230.34648 4.1711419,203.24863 -3.4985689,162.26077 4.0609474,130.17275 18.439695,69.138999 75.612205,26.025102 137.11308,29.837882 c 33.21575,2.059228 64.99003,16.771805 88.8225,41.127861 l 9.87254,10.08943 12.22287,-11.737008 c 27.61222,-26.514617 55.89859,-38.618702 90.95413,-38.920382 25.00419,-0.21518 37.32911,2.502334 59.74429,13.172987 23.69603,11.2804 46.2403,33.682119 57.93139,57.56512 18.83718,38.48128 18.85429,77.27721 0.0512,115.92651 -8.18087,16.81548 -9.33106,18.05726 -112.46831,121.42303 -67.34075,67.48996 -105.59942,104.4338 -108.15058,104.4338 -2.54343,0 -39.74936,-35.72675 -104.59463,-100.43633 z m 182.81888,-9.63705 C 435.89694,212.11183 434.49695,213.72865 441.77264,185.65083 458.09571,122.65808 413.02025,60.20874 348.0662,55.826178 316.47377,53.694581 290.72885,63.952954 265.20085,88.844863 253.53864,100.21649 252.57751,101.50413 261.03453,94.426523 293.76126,67.037781 311.38685,59.009 339.0754,58.87744 c 37.66081,-0.178947 70.3216,17.49155 88.55043,47.90851 11.5741,19.31277 13.87362,29.43715 12.95329,57.03105 -1.37411,41.19888 3.4372,34.69032 -109.15053,147.65464 l -95.37822,95.69724 -94.97469,-95.55293 C 40.246542,210.17295 38.085769,207.61718 32.262119,182.91079 24.091273,148.2466 33.639996,114.26998 58.782134,88.546287 79.333552,67.519501 100.46425,58.862161 131.23702,58.861198 c 28.62854,-8.98e-4 48.86143,8.539085 73.70361,31.109132 16.39704,14.89731 17.49031,13.95967 1.57974,-1.354875 C 197.974,80.389229 185.74799,70.869242 179.35146,67.459929 121.14017,36.433635 49.123267,67.139222 30.371506,130.97997 c -4.532713,15.43172 -4.172336,42.50218 0.779232,58.53349 2.182382,7.06573 7.573013,18.42449 11.979182,25.24169 8.043891,12.44547 189.03799,196.87812 192.0859,195.73518 0.80695,-0.30261 36.4026,-35.24262 79.10145,-77.64448 z m -74.73108,-221.0286 c -1.35321,-0.5475 -4.0515,-0.58083 -5.9962,-0.0741 -1.94471,0.50677 -0.83753,0.95472 2.46038,0.99545 3.29791,0.0407 4.88902,-0.37389 3.53582,-0.92139 z"
     id="path1458"
     inkscape:connector-curvature="0" /><path
     style="opacity:1;fill:#444444;fill-opacity:1;stroke:none;stroke-width:5.19670582;stroke-linecap:round;stroke-linejoin:round;stroke-miterlimit:4;stroke-dasharray:none;stroke-dashoffset:0;stroke-opacity:1"
     d="M 126.96271,337.49058 C 25.930665,236.12448 21.600675,231.47403 14.833018,217.0624 4.1283794,194.26704 2.1921152,185.03755 2.2535259,157.10041 2.3017317,135.17052 2.9563748,130.3241 7.6085595,117.45634 14.920872,97.230755 24.001234,82.751906 38.589694,68.056191 53.722215,52.812418 69.076472,43.244949 90.162042,35.92068 c 14.062678,-4.884803 18.836118,-5.542211 39.955478,-5.502759 20.63926,0.03855 26.27495,0.800836 40.4034,5.464939 18.79384,6.204248 40.77208,20.118621 55.41466,35.082883 l 9.87254,10.08943 12.22287,-11.737008 c 16.73517,-16.069935 34.63099,-27.194074 53.82085,-33.455337 20.43268,-6.666776 52.55032,-7.496707 73.11047,-1.889201 34.02953,9.281095 66.38534,35.879993 81.69849,67.162263 18.83718,38.48128 18.85429,77.27721 0.0512,115.92651 -8.18087,16.81548 -9.33106,18.05726 -112.46831,121.42303 -68.07246,68.2233 -105.5877,104.43536 -108.19681,104.43832 -2.61724,0.002 -40.21734,-36.3387 -109.08408,-105.43317 z M 427.97119,216.06304 C 441.99232,195.79997 448.2333,163.67023 443.02035,138.58699 429.79237,74.937591 358.90165,38.029786 299.95068,64.100697 288.75436,69.05225 267.71224,84.456667 260.03516,93.321879 l -3.99746,4.616132 5.16872,-3.897577 c 2.84278,-2.143667 10.93765,-8.294241 17.9886,-13.66794 16.48189,-12.561292 31.13114,-19.037988 47.61673,-21.052217 44.80094,-5.473834 86.8948,17.204036 106.56072,57.409103 6.48243,13.25273 6.54866,13.68125 6.54866,42.36977 0,46.12377 6.28146,37.30085 -108.52634,152.43581 l -95.34442,95.61611 -94.97469,-95.54402 C 72.674945,242.79629 44.59122,213.22494 40.705119,205.91974 20.874024,168.6407 26.942555,123.05177 55.899411,91.774908 80.359126,65.355497 109.43003,54.814945 145.38406,59.329493 c 21.47755,2.696817 30.59268,7.578608 65.68215,35.177383 l 6.99556,5.502194 -4.99683,-5.630337 C 204.31884,84.5238 183.79751,69.251276 172.7663,64.387423 132.36784,46.575025 89.71704,54.648183 58.018506,86.107462 34.518003,109.43059 25.810513,132.40286 27.699859,166.09471 c 1.223161,21.81204 6.38001,36.47889 18.442355,52.4528 4.778949,6.32866 49.183697,52.43072 98.677216,102.44901 l 89.98823,90.94235 93.12416,-92.94108 c 51.2183,-51.1176 96.23602,-97.43824 100.03937,-102.93475 z M 238.50715,111.92072 c -0.66418,-0.66416 -2.38809,-0.73517 -3.83091,-0.1578 -1.59445,0.63805 -1.12085,1.11166 1.20757,1.20757 2.10699,0.0868 3.2875,-0.38561 2.62334,-1.04978 z"
     id="path1460"
     inkscape:connector-curvature="0" /><path
     style="opacity:1;fill:#444444;fill-opacity:1;stroke:none;stroke-width:5.19670582;stroke-linecap:round;stroke-linejoin:round;stroke-miterlimit:4;stroke-dasharray:none;stroke-dashoffset:0;stroke-opacity:1"
     d="M 126.95444,337.49058 C 26.422909,236.63458 21.534853,231.38978 14.46614,216.79276 4.2731914,195.74413 0.59227016,176.96457 1.7866207,152.10358 3.4080856,118.352 14.803441,92.103488 38.1758,68.283317 89.74586,15.725181 173.28932,16.886041 225.90566,70.891876 l 9.84262,10.102544 14.2637,-13.414379 c 24.08059,-22.646703 45.64388,-32.988905 76.98074,-36.921553 64.16526,-8.052481 127.54735,37.583134 140.91198,101.457762 6.18997,29.58427 2.17534,58.65145 -12.04593,87.21602 -6.8416,13.74192 -14.25059,21.65427 -111.57315,119.15316 -68.08586,68.20925 -105.63026,104.43536 -108.23883,104.43832 -2.61712,0.002 -40.22293,-36.34146 -109.09235,-105.43317 z M 433.47262,206.71887 C 453.39653,165.06576 446.2485,119.10737 414.8931,87.261351 400.46111,72.603553 385.42726,64.097555 364.67909,58.850782 c -35.21524,-8.905185 -67.82892,0.564635 -97.64836,28.353499 -6.74904,6.289455 -7.24799,7.082848 -1.99873,3.178248 34.99757,-26.032594 48.09869,-31.595748 74.69537,-31.718072 40.21568,-0.184963 75.80079,21.809868 93.5095,57.797373 6.64917,13.51239 6.68426,13.73614 6.68426,42.60134 0,46.18356 6.28744,37.35231 -108.53158,152.44181 l -95.33918,95.56378 -87.22743,-87.50793 C 55.054217,225.49057 45.35708,215.18883 39.181119,203.08294 29.367942,183.84753 26.530922,156.12414 32.162948,134.50134 36.521923,117.7661 43.631268,105.02597 56.166396,91.486533 74.669429,71.501049 91.796134,62.516705 117.62544,59.246286 c 28.31199,-3.58477 53.71035,3.642521 76.45153,21.754843 17.34485,13.814389 22.34156,16.773252 11.9924,7.101455 C 183.83381,67.322364 163.58711,57.858633 137.11308,55.870975 107.38839,53.63926 79.579465,64.547669 56.874805,87.345476 25.53012,118.81875 18.165633,164.44628 37.879408,205.03363 c 5.507533,11.33909 17.089751,23.98525 92.836572,101.36462 47.59919,48.62508 90.77182,92.05263 95.93918,96.50567 l 9.39521,8.09645 95.9983,-96.46931 c 80.66759,-81.06336 96.86478,-98.28073 101.42395,-107.81219 z"
     id="path1462"
     inkscape:connector-curvature="0" /><path
     style="opacity:1;fill:#444444;fill-opacity:1;stroke:none;stroke-width:5.19670582;stroke-linecap:round;stroke-linejoin:round;stroke-miterlimit:4;stroke-dasharray:none;stroke-dashoffset:0;stroke-opacity:1"
     d="M 126.85046,337.49058 C 25.964075,236.3786 21.354605,231.43563 14.496043,217.00718 3.8987448,194.71348 0.61234643,178.21924 1.7634306,153.10295 2.3795494,139.65942 4.2279829,127.44667 6.9061622,119.12449 19.528811,79.900837 52.881698,47.296341 93.140958,34.82468 c 21.934472,-6.794943 56.816912,-6.380978 77.620642,0.921157 19.66144,6.901189 34.3193,15.891056 50.40142,30.911909 7.35608,6.870644 14.03503,12.492081 14.84212,12.492081 0.80708,0 8.09598,-6.190342 16.19755,-13.756316 15.99238,-14.935129 39.16605,-27.743452 58.80017,-32.49945 15.97919,-3.870661 50.2809,-3.307224 64.95882,1.067008 21.70224,6.46758 38.80944,16.859172 56.14061,34.10202 18.8419,18.745889 30.37672,39.382551 35.90706,64.240411 6.96299,31.29729 -0.225,70.7942 -17.62369,96.83959 -10.15023,15.19462 -209.28815,213.77484 -214.38106,213.78066 -2.56012,0.002 -40.9982,-37.12483 -109.15414,-105.43317 z m 306.73873,-132.4665 c 9.72685,-19.84025 12.94515,-40.13801 9.68698,-61.09545 -1.29718,-8.34378 -3.26967,-16.66351 -4.38328,-18.48828 -1.48852,-2.43906 -1.62048,-1.72969 -0.49827,2.67844 0.83959,3.2979 1.52651,18.1385 1.52651,32.97909 0,40.8919 -0.48145,41.7011 -61.42496,103.23828 -26.67795,26.93782 -69.30547,70.15633 -94.72783,96.04112 -25.42237,25.88479 -47.00868,46.72056 -47.96959,46.30173 -0.96091,-0.41884 -44.03743,-43.47876 -95.7256,-95.68875 C 42.379817,212.31068 38.796033,208.1219 32.171788,184.87355 c -2.660601,-9.33761 -2.939874,-9.71165 -2.082318,-2.78897 0.544711,4.39721 4.252183,14.60094 8.238828,22.67494 6.528713,13.22236 13.420333,20.96245 69.405652,77.95059 34.18646,34.79882 76.99034,78.01507 95.11972,96.03612 l 32.96253,32.76553 95.22315,-95.77155 c 89.45272,-89.96792 95.66714,-96.67719 102.54984,-110.71613 z M 33.111447,130.11752 C 42.721961,100.70101 68.138347,73.685958 95.179748,64.145196 129.7572,51.94556 166.92118,58.487591 195.56165,81.815573 c 14.77182,12.031817 17.0445,12.106554 3.17567,0.104434 C 184.73073,69.798641 164.33285,60.077631 146.50449,57.027426 85.249221,46.547429 26.149876,97.687498 27.483922,160.01876 l 0.301151,14.07088 1.357198,-17.98859 c 0.746457,-9.89373 2.532586,-21.58632 3.969176,-25.98353 z M 431.97745,109.57941 C 425.35845,97.418115 409.24564,80.708289 395.72229,71.980891 359.21299,48.419335 310.95297,51.229779 277.145,78.886292 c -18.37433,15.031082 -18.20798,14.965359 9.68152,-3.8246 17.97543,-12.110569 31.48736,-16.29875 52.90085,-16.397235 29.49278,-0.135654 55.57443,10.797153 74.7724,31.342803 6.28663,6.727934 13.65182,16.4334 16.36708,21.5677 2.71528,5.1343 5.2779,8.99406 5.69471,8.57724 0.41682,-0.41681 -1.64603,-5.17457 -4.58411,-10.57279 z"
     id="path1464"
     inkscape:connector-curvature="0" /><path
     style="opacity:1;fill:#444444;fill-opacity:1;stroke:none;stroke-width:5.19670582;stroke-linecap:round;stroke-linejoin:round;stroke-miterlimit:4;stroke-dasharray:none;stroke-dashoffset:0;stroke-opacity:1"
     d="M 126.85046,337.49058 C 25.964075,236.3786 21.354605,231.43563 14.496043,217.00718 3.8987448,194.71348 0.61234643,178.21924 1.7634306,153.10295 3.3865385,117.68723 14.683282,91.898086 39.350018,67.297154 63.155676,43.555006 89.800254,31.634799 123.12195,29.819408 c 36.5813,-1.992977 69.51136,10.111844 96.7761,35.574103 8.10156,7.565974 15.37011,13.756316 16.15232,13.756316 0.7822,0 8.05075,-6.190342 16.15232,-13.756316 27.02727,-25.240496 61.22389,-37.758695 96.77609,-35.42639 33.67618,2.209233 58.47801,13.57606 83.12351,38.095968 18.8419,18.745889 30.37672,39.382551 35.90706,64.240411 6.96299,31.29729 -0.225,70.7942 -17.62369,96.83959 -10.15023,15.19462 -209.28815,213.77484 -214.38106,213.78066 -2.56012,0.002 -40.9982,-37.12483 -109.15414,-105.43317 z m 271.19058,-89.86825 c 26.67257,-28.12684 39.13042,-44.17504 38.78893,-49.96795 -0.0512,-0.86827 -2.40957,2.87577 -5.24085,8.32008 -5.15234,9.90751 -31.40156,37.44092 -143.48011,150.49957 -27.51678,27.75741 -50.65305,50.46801 -51.41395,50.46801 -1.75775,0 -174.202772,-173.59118 -185.304904,-186.53653 -8.68976,-10.13246 -12.898442,-17.22798 -17.283586,-29.13882 -1.454566,-3.95086 -2.707332,-5.83424 -2.783923,-4.18528 -0.32825,7.06693 12.335256,28.44573 25.007106,42.21754 7.462715,8.1105 50.948257,52.29703 96.634537,98.19231 l 83.06597,83.44599 65.64291,-65.45739 c 36.10359,-36.00156 79.46914,-80.03744 96.36787,-97.85753 z m 42.24608,-62.91442 c -0.63803,-1.59445 -1.11165,-1.12084 -1.20755,1.20757 -0.0867,2.107 0.38559,3.2875 1.04977,2.62334 0.66416,-0.66416 0.73516,-2.38807 0.1577,-3.83091 z m -409.740256,-5.9962 c -0.638047,-1.59445 -1.111661,-1.12084 -1.207568,1.20757 -0.08679,2.107 0.385611,3.2875 1.049774,2.62334 0.664161,-0.66416 0.73517,-2.38807 0.1578,-3.83091 z M 444.03371,150.78668 c -0.6097,-7.32011 -2.03467,-15.41498 -3.16662,-17.98859 l -2.05809,-4.6793 1.02847,4.99683 c 0.56564,2.74826 1.13927,14.89056 1.27473,26.98289 0.21504,19.19722 0.48627,20.84518 2.13816,12.99177 1.04052,-4.94687 1.39304,-14.98348 0.78335,-22.3036 z M 28.628644,150.60453 c -0.443373,-3.57273 -0.806133,-0.64959 -0.806133,6.49588 0,7.14547 0.36276,10.06862 0.806133,6.49589 0.443371,-3.57274 0.443371,-9.41903 0,-12.99177 z m 1.876581,-13.99113 c -0.554475,-1.37413 -1.008133,-0.24984 -1.008133,2.49842 0,2.74825 0.453658,3.87254 1.008133,2.49841 0.554472,-1.37413 0.554472,-3.6227 0,-4.99683 z M 44.883472,104.59981 C 51.880385,93.278569 73.859369,74.019563 87.545823,67.217079 94.470709,63.775251 97.887949,61.539312 95.139691,62.248323 85.837785,64.648086 68.68026,76.096682 57.014706,87.687747 45.846532,98.78461 31.118536,123.4567 31.227675,130.88575 c 0.0261,1.77608 2.122306,-1.81466 4.658253,-7.97941 2.535946,-6.16475 6.584842,-14.40269 8.997544,-18.30653 z m 386.934558,5.12098 c -8.3328,-14.285149 -27.5406,-33.301074 -40.74715,-40.340098 -6.41921,-3.421402 -12.44483,-6.2003 -13.39025,-6.175332 -0.94542,0.02496 4.11495,3.188657 11.24525,7.030422 15.86151,8.54606 31.37655,23.528987 40.29957,38.917388 3.68401,6.35337 7.03235,11.23665 7.44073,10.85174 0.4084,-0.38492 -1.77328,-5.01277 -4.84815,-10.28412 z M 200.03474,83.255105 C 193.67075,76.96522 171.73048,63.135956 168.21103,63.19617 c -1.16398,0.01999 2.74156,2.713924 8.67897,5.986685 5.9374,3.272761 14.48199,9.062341 18.98796,12.865732 10.07864,8.507158 12.15245,9.109086 4.15678,1.206518 z M 303.5559,65.152446 c 17.20421,-7.610238 39.63847,-8.670798 66.40958,-3.139452 5.41331,1.118477 5.53809,1.038658 1.28355,-0.821104 -9.99993,-4.371211 -31.16681,-6.276761 -45.38831,-4.086087 -16.30735,2.511975 -38.45083,12.710898 -49.85272,22.96134 -7.30207,6.564661 -6.84892,6.402934 5.34937,-1.909141 7.32999,-4.994756 17.31934,-10.847256 22.19853,-13.005556 z M 131.11689,58.16313 c 4.94686,0 13.49144,0.624177 18.98796,1.387057 8.09459,1.123478 9.04412,0.975716 4.99683,-0.777579 -6.43965,-2.789668 -43.44627,-2.814948 -49.96832,-0.03414 -3.95534,1.686443 -2.70555,1.848514 5.99619,0.777581 6.04617,-0.744105 15.04047,-1.352921 19.98734,-1.352921 z"
     id="path1466"
     inkscape:connector-curvature="0" /><path
     style="opacity:1;fill:#444444;fill-opacity:1;stroke:none;stroke-width:5.19670582;stroke-linecap:round;stroke-linejoin:round;stroke-miterlimit:4;stroke-dasharray:none;stroke-dashoffset:0;stroke-opacity:1"
     d="M 186.56866,397.44806 C 161.39854,372.43891 114.03756,324.99399 81.32205,292.01489 27.976442,238.23948 21.09809,230.55855 14.655296,217.56924 4.1880008,196.46615 0.42651483,177.19462 1.7203353,151.29852 3.4205487,117.26837 15.02963,91.342252 39.365176,67.227722 63.411457,43.399831 90.043164,31.477068 123.03077,29.771426 c 36.99881,-1.913042 68.44359,9.583726 96.72531,35.364482 17.68131,16.117745 14.20651,16.340224 34.82682,-2.229832 14.02757,-12.632826 33.43904,-23.570483 51.42312,-28.975052 16.57274,-4.980434 53.38292,-4.980434 69.95566,0 42.04684,12.635904 75.3367,45.554754 90.19614,89.190926 2.90174,8.52125 3.72172,16.61073 3.64679,35.9772 -0.0838,21.62435 -0.81674,27.13443 -5.45132,40.97402 -2.94506,8.79443 -8.92289,21.38645 -13.28406,27.98227 -10.38816,15.71094 -209.59758,214.86379 -214.92482,214.86379 -2.29727,0 -21.99586,-18.06766 -49.57575,-45.47117 z M 420.93317,223.06632 c 4.94686,-6.01462 -6.25699,4.7897 -24.89748,24.00962 -64.93615,66.95472 -157.91593,159.86582 -159.94285,159.82475 -1.12267,-0.0228 -9.2758,-7.44303 -18.11809,-16.48955 -8.8423,-9.04651 -50.75344,-51.52596 -93.13588,-94.39878 -53.248151,-53.86426 -79.000183,-81.34738 -83.341313,-88.94362 -3.45529,-6.04617 -6.290785,-9.97124 -6.3011,-8.72238 -0.06721,8.13593 24.86233,35.6912 108.886863,120.35547 l 91.94506,92.64514 87.95525,-88.67249 c 48.37539,-48.76987 92.00268,-93.59355 96.94954,-99.60816 z m 11.9924,-15.99758 c 1.17665,-2.19861 1.68967,-3.99747 1.14002,-3.99747 -0.54966,0 -1.9621,1.79886 -3.13875,3.99747 -1.17666,2.19861 -1.68967,3.99747 -1.14002,3.99747 0.54965,0 1.96209,-1.79886 3.13875,-3.99747 z m 10.55283,-58.4484 -2.00139,-12.50662 -0.0382,20.98669 c -0.0336,18.43181 0.21007,19.95435 2.00139,12.50663 1.37439,-5.71427 1.38686,-12.55915 0.0382,-20.9867 z m -414.882005,4.00623 c -0.478083,-2.48625 -0.887394,-0.92274 -0.90958,3.47448 -0.02219,4.39721 0.368976,6.43141 0.869243,4.52045 0.500269,-1.91096 0.51842,-5.50868 0.04033,-7.99493 z m 1.950469,-15.88825 c -0.638047,-1.59445 -1.111661,-1.12084 -1.207568,1.20757 -0.08679,2.107 0.385611,3.2875 1.049774,2.62334 0.664161,-0.66417 0.73517,-2.38807 0.1578,-3.83091 z m 409.740256,-5.9962 c -0.63803,-1.59445 -1.11165,-1.12084 -1.20755,1.20757 -0.0867,2.107 0.38559,3.2875 1.04977,2.62334 0.66416,-0.66416 0.73516,-2.38807 0.1577,-3.83091 z M 37.7686,118.6248 c 2.850584,-6.32099 4.801203,-11.49271 4.334711,-11.49271 -1.180732,0 -8.093602,13.93466 -9.915549,19.98733 -2.244421,7.45617 -0.229205,4.3888 5.580838,-8.49462 z m 392.423,-11.45208 c -7.16933,-10.833609 -8.47491,-10.254361 -1.68627,0.74816 2.98077,4.83106 5.77608,8.44706 6.21178,8.03557 0.43569,-0.41149 -1.60078,-4.36417 -4.52551,-8.78373 z M 77.151094,72.530553 c 4.809783,-3.415713 4.75463,-3.417496 -1.473364,-0.04761 -3.55861,1.925521 -11.653479,8.908047 -17.988597,15.516724 L 46.170732,100.01545 59.162497,88.047277 C 66.307967,81.464779 74.402836,74.482252 77.151094,72.530553 Z M 422.9319,96.563604 c 0,-0.316149 -4.722,-5.038156 -10.49334,-10.493348 l -10.49335,-9.918529 9.91853,10.493349 c 9.21648,9.750607 11.06816,11.409967 11.06816,9.918528 z M 198.07444,81.863303 c -8.26977,-7.358342 -26.47005,-18.679032 -29.98099,-18.648377 -1.09931,0.0096 2.85914,2.695168 8.79655,5.967929 5.9374,3.272761 14.48199,9.062341 18.98796,12.865732 10.76405,9.085693 12.45546,8.943013 2.19648,-0.185282 z M 295.8504,68.833049 c 5.5856,-3.08037 9.25619,-5.608523 8.15689,-5.618123 -3.07135,-0.02682 -21.2619,11.045203 -27.98226,17.031936 l -5.9962,5.341621 7.83297,-5.577382 c 4.30815,-3.067562 12.40302,-8.097685 17.9886,-11.178052 z m 99.09924,3.361835 c 0,-1.211974 -15.28673,-9.066037 -17.40928,-8.944604 -0.86827,0.04967 2.46875,2.257607 7.41562,4.906515 10.07659,5.395732 9.99366,5.362227 9.99366,4.038089 z M 88.197014,65.544707 c -0.615384,-0.615384 -2.228176,-0.0013 -3.583984,1.364703 -1.959292,1.973981 -1.72971,2.203563 1.118881,1.118881 1.971192,-0.750586 3.080489,-1.8682 2.465103,-2.483584 z M 318.45647,59.953661 c -0.66418,-0.664161 -2.38809,-0.73517 -3.83091,-0.1578 -1.59445,0.638048 -1.12085,1.111662 1.20757,1.207569 2.10699,0.08678 3.2875,-0.385612 2.62334,-1.049775 z m 49.96833,0 c -0.66418,-0.664161 -2.38809,-0.73517 -3.83092,-0.1578 -1.59445,0.638048 -1.12085,1.111662 1.20758,1.207569 2.10698,0.08678 3.28749,-0.385612 2.62334,-1.049775 z m -249.8,-2.168943 c -1.92378,-0.502735 -5.07178,-0.502735 -6.99556,0 -1.92378,0.502738 -0.34978,0.914067 3.49778,0.914067 3.84756,0 5.42156,-0.411329 3.49778,-0.914067 z m 29.981,0 c -1.92378,-0.502735 -5.07179,-0.502735 -6.99557,0 -1.92378,0.502738 -0.34977,0.914067 3.49779,0.914067 3.84756,0 5.42156,-0.411329 3.49778,-0.914067 z m 183.90674,0.0044 c -1.91097,-0.500268 -5.50869,-0.518419 -7.99493,-0.04033 -2.48625,0.478083 -0.92274,0.887394 3.47448,0.909579 4.39721,0.02219 6.43142,-0.368976 4.52045,-0.869243 z m 25.98353,0 c -1.91097,-0.500268 -5.50869,-0.518419 -7.99493,-0.04033 -2.48625,0.478083 -0.92274,0.887394 3.47447,0.909579 4.39722,0.02219 6.43143,-0.368976 4.52046,-0.869243 z M 133.65334,55.852721 c -1.35321,-0.547499 -4.0515,-0.580826 -5.9962,-0.07405 -1.9447,0.506759 -0.83753,0.954713 2.46038,0.995445 3.29791,0.04073 4.88903,-0.373893 3.53582,-0.921392 z m 208.78793,0.103474 c -0.66418,-0.664161 -2.38809,-0.73517 -3.83092,-0.1578 -1.59444,0.638048 -1.12084,1.111662 1.20758,1.207569 2.10698,0.08678 3.2875,-0.385612 2.62334,-1.049775 z"
     id="path1468"
     inkscape:connector-curvature="0" /><path
     style="opacity:1;fill:#444444;fill-opacity:1;stroke:none;stroke-width:5.19670582;stroke-linecap:round;stroke-linejoin:round;stroke-miterlimit:4;stroke-dasharray:none;stroke-dashoffset:0;stroke-opacity:1"
     d="M 184.38574,395.44932 C 118.28049,330.26153 29.647011,240.41778 23.680581,232.54977 7.9090281,211.7516 0.12232386,182.88869 1.7604307,151.29852 3.5295326,117.18217 14.807865,91.553284 38.326789,68.205111 63.283786,43.429305 89.571577,31.501452 123.03077,29.771426 c 36.26744,-1.875227 68.24764,9.582499 95.59686,34.250035 8.00637,7.221298 15.73699,13.129633 17.17917,13.129633 1.44219,0 9.25963,-5.841077 17.37213,-12.980174 27.90659,-24.558164 51.99748,-33.843848 87.80492,-33.843848 26.21976,0 38.75515,2.967253 60.96136,14.430175 19.45135,10.040852 44.07742,34.647558 53.42255,53.380543 12.59206,25.24163 14.53347,33.38474 14.53395,60.96136 3.8e-4,22.22986 -0.62494,26.80597 -5.67223,41.5097 -3.11994,9.08904 -9.14212,21.68106 -13.38261,27.98227 -10.16322,15.10216 -209.64827,214.32811 -214.60686,214.32811 -2.16697,0 -23.78467,-19.78987 -51.85427,-47.46991 z M 379.51551,266.03136 c 22.1464,-23.08536 -0.47762,-0.82447 -50.27562,49.46864 -49.79801,50.29312 -91.62002,91.44204 -92.9378,91.44204 -1.31777,0 -18.1161,-15.96488 -37.32962,-35.47751 C 179.75895,351.9519 137.06877,308.60899 104.1054,275.14694 71.142029,241.6849 48.219434,219.17611 53.166298,225.1274 c 4.946864,5.9513 48.066122,50.24062 95.820582,98.42072 l 86.82628,87.60017 51.71807,-51.57177 c 28.44493,-28.36448 69.83785,-70.45979 91.98428,-93.54516 z M 41.989469,208.06811 c -1.800729,-2.74826 -3.673404,-4.99684 -4.161502,-4.99684 -0.979519,0 0.905404,3.62082 3.90187,7.49525 3.441511,4.44987 3.629162,2.64414 0.259632,-2.49841 z m 390.936101,-0.99937 c 1.17665,-2.19861 1.68967,-3.99747 1.14002,-3.99747 -0.54966,0 -1.9621,1.79886 -3.13875,3.99747 -1.17666,2.19861 -1.68967,3.99747 -1.14002,3.99747 0.54965,0 1.96209,-1.79886 3.13875,-3.99747 z m 10.49834,-57.32056 -1.99031,-11.63573 -0.0526,17.9886 c -0.0438,15.01535 0.28516,16.93856 1.99032,11.63573 1.37513,-4.27646 1.39227,-10.15596 0.0526,-17.9886 z m -414.875779,4.97874 c -0.638047,-1.59446 -1.111661,-1.12084 -1.207568,1.20757 -0.08678,2.10699 0.385611,3.2875 1.049774,2.62333 0.664161,-0.66416 0.73517,-2.38807 0.1578,-3.8309 z M 39.97167,113.62797 c 1.81699,-3.57273 2.853903,-6.49588 2.304251,-6.49588 -1.151232,0 -7.09822,11.08062 -7.09822,13.22563 0,2.08693 1.083851,0.56543 4.793969,-6.72975 z M 60.161863,87.144759 c 5.413867,-5.496516 9.393678,-9.993665 8.844026,-9.993665 -0.549651,0 -5.428892,4.497149 -10.842759,9.993665 -5.413866,5.496516 -9.393677,9.993665 -8.844025,9.993665 0.549651,0 5.428892,-4.497149 10.842758,-9.993665 z M 422.9319,96.448837 c 0,-0.379273 -2.02371,-2.402991 -4.49715,-4.497149 l -4.49715,-3.807563 3.80757,4.49715 c 3.57817,4.226211 5.18673,5.407054 5.18673,3.807562 z M 197.07507,80.92804 c -6.04518,-5.231754 -16.82757,-12.334148 -13.99113,-9.216 2.09745,2.305762 19.03552,15.228099 19.98733,15.248666 0.54965,0.01179 -2.14863,-2.702823 -5.9962,-6.032666 z m 91.94172,-9.073976 c 0,-1.445842 -7.70305,3.207772 -9.12907,5.5151 -0.74623,1.207418 1.00254,0.649424 3.88616,-1.239988 2.88359,-1.889413 5.24291,-3.813213 5.24291,-4.275112 z M 75.407309,73.653311 c 2.486166,-3.170102 2.415471,-3.240797 -0.754631,-0.754631 -3.329386,2.611082 -4.388177,4.252414 -2.743151,4.252414 0.415048,0 1.989051,-1.574002 3.497782,-3.497783 z M 394.94964,72.194884 c 0,-0.52731 -3.59772,-2.794165 -7.99493,-5.037455 -4.39721,-2.24329 -7.99493,-3.632202 -7.99493,-3.086472 0,0.545732 3.37286,2.772837 7.49525,4.949119 8.4806,4.477066 8.49461,4.482303 8.49461,3.174808 z M 181.08521,70.206856 c 0,-0.521422 -2.69829,-2.343379 -5.9962,-4.048794 -7.517,-3.887192 -7.97183,-2.198832 -0.49968,1.854875 6.28112,3.407566 6.49588,3.480098 6.49588,2.193919 z M 304.16793,63.65373 c -0.91434,-0.914342 -13.1524,5.153129 -13.1524,6.52079 0,0.503635 3.13671,-0.580092 6.97046,-2.408283 3.83377,-1.828191 6.61562,-3.67882 6.18194,-4.112507 z m 64.25687,-3.700069 c -0.66418,-0.664161 -2.38809,-0.73517 -3.83092,-0.1578 -1.59445,0.638048 -1.12085,1.111662 1.20758,1.207569 2.10698,0.08678 3.28749,-0.385612 2.62334,-1.049775 z M 117.62544,57.838774 c -1.37413,-0.554473 -3.62271,-0.554473 -4.99684,0 -1.37412,0.554475 -0.24984,1.008133 2.49842,1.008133 2.74826,0 3.87255,-0.453658 2.49842,-1.008133 z m 29.98099,0 c -1.37413,-0.554473 -3.6227,-0.554473 -4.99683,0 -1.37413,0.554475 -0.24984,1.008133 2.49842,1.008133 2.74825,0 3.87254,-0.453658 2.49841,-1.008133 z m 181.88471,0 c -1.37413,-0.554473 -3.62271,-0.554473 -4.99684,0 -1.37413,0.554475 -0.24984,1.008133 2.49842,1.008133 2.74826,0 3.87254,-0.453658 2.49842,-1.008133 z m 27.98226,0 c -1.37413,-0.554473 -3.62271,-0.554473 -4.99683,0 -1.37413,0.554475 -0.24985,1.008133 2.49841,1.008133 2.74826,0 3.87255,-0.453658 2.49842,-1.008133 z"
     id="path1470"
     inkscape:connector-curvature="0" /><path
     style="opacity:1;fill:#444444;fill-opacity:1;stroke:none;stroke-width:5.19670582;stroke-linecap:round;stroke-linejoin:round;stroke-miterlimit:4;stroke-dasharray:none;stroke-dashoffset:0;stroke-opacity:1"
     d="M 194.28875,405.63113 C 121.68457,334.73729 29.168732,240.00496 21.327618,228.52622 5.9831403,206.06315 0.19098533,183.09642 1.8019727,151.10422 3.4984945,117.4134 14.775098,91.727758 38.188474,68.223705 62.801848,43.515004 88.928508,31.703685 123.12195,29.827046 c 35.74506,-1.961797 67.32179,9.309505 95.93919,34.245462 8.24477,7.184136 15.88992,13.062066 16.98923,13.062066 1.0993,0 8.74445,-5.842164 16.98923,-12.982592 28.54169,-24.718656 52.2178,-33.82491 87.94425,-33.82491 38.91639,0 63.92082,10.522705 91.98543,38.710573 19.06629,19.150031 29.45645,37.318875 35.14516,61.456995 4.55933,19.34597 2.85519,50.67629 -3.80986,70.0435 -10.14779,29.48725 -11.75101,31.2936 -146.38389,164.93019 -46.40604,46.06264 -79.53101,77.4509 -81.73627,77.4509 -2.11432,0 -20.12058,-16.02598 -41.89567,-37.2881 z m 106.73233,-60.15013 62.9482,-63.45977 -62.9718,62.4604 c -34.63449,34.35323 -63.86596,62.49533 -64.95882,62.53802 -1.09287,0.0427 -42.01165,-40.26494 -90.93064,-89.57252 C 96.189026,268.13957 65.6031,237.74887 77.139293,249.91228 115.46074,290.31723 233.99747,408.94077 236.05141,408.94077 c 1.11181,0 30.34818,-28.5569 64.96967,-63.45977 z m 142.2926,-194.84782 -1.9183,-10.522 -0.0797,15.98987 c -0.0644,12.90837 0.30539,14.93612 1.9183,10.52199 1.30632,-3.575 1.33388,-9.11036 0.0797,-15.98986 z M 39.014693,115.12702 c 2.243867,-4.71155 2.202268,-4.77532 -0.728631,-1.11703 -1.709598,2.13389 -3.108361,4.75723 -3.108361,5.82964 0,2.53947 0.923215,1.40558 3.836992,-4.71261 z M 65.413644,81.648243 c 2.486166,-3.170102 2.415471,-3.240797 -0.754631,-0.754631 -1.923781,1.508731 -3.497783,3.082733 -3.497783,3.497782 0,1.645026 1.641331,0.586235 4.252414,-2.743151 z M 289.01679,72.013615 c 0,-0.549652 -1.79886,-0.03664 -3.99746,1.140013 -2.19861,1.176658 -3.99747,2.589095 -3.99747,3.138746 0,0.549652 1.79886,0.03664 3.99747,-1.140013 2.1986,-1.176658 3.99746,-2.589095 3.99746,-3.138746 z m 105.93285,0.191978 c 0,-0.521422 -2.69829,-2.343379 -5.9962,-4.048794 -7.51699,-3.887192 -7.97182,-2.198832 -0.49968,1.854875 6.28112,3.407566 6.49588,3.480098 6.49588,2.193919 z M 181.08521,70.225852 c 0,-0.510974 -2.02372,-1.909738 -4.49715,-3.108362 -4.31851,-2.092753 -4.34304,-2.055849 -0.61735,0.929043 4.07794,3.267105 5.1145,3.708789 5.1145,2.179319 z m 119.75743,-4.338528 c 2.7429,-2.399797 -3.7627,-0.171151 -6.94668,2.379734 -3.6583,2.930898 -3.59452,2.972497 1.11703,0.72863 2.74826,-1.308855 5.3716,-2.707618 5.82965,-3.108364 z"
     id="path1472"
     inkscape:connector-curvature="0" /><path
     style="opacity:1;fill:#444444;fill-opacity:1;stroke:none;stroke-width:5.19670582;stroke-linecap:round;stroke-linejoin:round;stroke-miterlimit:4;stroke-dasharray:none;stroke-dashoffset:0;stroke-opacity:1"
     d="M 211.27613,422.57779 C 157.67738,371.14145 28.094897,238.86924 21.170576,228.52622 12.410889,215.44167 5.8328536,199.15989 2.8113409,183.08394 0.18949148,169.1344 2.0307785,133.06057 6.0024992,120.56392 18.424621,81.478877 52.582674,47.138297 91.142225,34.969247 c 18.099975,-5.712189 46.931135,-7.034818 65.958185,-3.02583 20.42903,4.304381 43.98076,16.499147 61.96073,32.082417 8.24477,7.145762 15.88992,12.992294 16.98923,12.992294 1.0993,0 8.74445,-5.81088 16.98923,-12.913066 25.55168,-22.01065 48.94649,-32.022145 80.01674,-34.242097 40.04663,-2.86131 75.1835,11.676205 104.34251,43.170635 35.72576,38.5871 43.75898,94.82842 20.46299,143.26281 -6.32659,13.15348 -12.47713,20.45945 -50.79126,60.33261 -23.97616,24.95179 -51.57725,52.93405 -61.33576,62.18283 -9.7585,9.24877 -37.57596,36.45653 -61.81656,60.46167 -25.39656,25.14988 -45.63577,43.64571 -47.75966,43.64571 -2.02722,0 -13.22432,-9.15365 -24.88247,-20.34144 z m 22.47821,-16.5682 c -2.30166,-1.61216 -37.84567,-36.91478 -78.98668,-78.45027 -41.14101,-41.53549 -67.572465,-67.87393 -58.73657,-58.52986 32.69232,34.57257 138.06188,139.91131 139.95224,139.91131 1.07572,0 0.0728,-1.31902 -2.22899,-2.93118 z m 51.26499,-44.03904 c 22.5156,-22.53572 40.48773,-40.97403 39.93808,-40.97403 -0.54965,0 -19.42121,18.43831 -41.93682,40.97403 -22.5156,22.53571 -40.48773,40.97402 -39.93808,40.97402 0.54965,0 19.42121,-18.43831 41.93682,-40.97402 z M 444.88737,158.59946 c 0.0168,-1.92378 -0.86883,-3.49778 -1.96814,-3.49778 -1.0993,0 -1.98496,2.92315 -1.96813,6.49588 0.0232,4.92932 0.49787,5.77286 1.96813,3.49779 1.06565,-1.64896 1.95131,-4.57211 1.96814,-6.49589 z m -2.60151,-11.86747 c -0.63804,-1.59446 -1.11166,-1.12084 -1.20756,1.20757 -0.0867,2.10699 0.3856,3.28749 1.04978,2.62333 0.66415,-0.66416 0.73515,-2.38807 0.1577,-3.8309 z M 37.939064,118.02131 c 0.68256,-1.77872 0.347478,-2.58101 -0.785524,-1.88077 -1.086711,0.67162 -1.975839,2.06748 -1.975839,3.10191 0,2.87504 1.432624,2.2415 2.761363,-1.22114 z M 300.06271,65.544707 c -0.61539,-0.615384 -2.22817,-0.0013 -3.58399,1.364703 -1.95928,1.973981 -1.7297,2.203563 1.11889,1.118881 1.97119,-0.750586 3.08049,-1.8682 2.4651,-2.483584 z"
     id="path1474"
     inkscape:connector-curvature="0" /><path
     style="opacity:1;fill:#444444;fill-opacity:1;stroke:none;stroke-width:5.19670582;stroke-linecap:round;stroke-linejoin:round;stroke-miterlimit:4;stroke-dasharray:none;stroke-dashoffset:0;stroke-opacity:1"
     d="M 203.46023,415.09915 C 174.1488,387.33511 103.03121,315.95272 49.901607,260.96877 26.798834,237.05967 20.544451,229.2813 14.54469,216.99665 4.7394389,196.92015 1.1924541,181.77945 1.233945,160.17827 1.3059172,122.70791 13.04662,93.443426 38.08769,68.317849 62.801338,43.520802 88.778082,31.763915 123.29738,29.752557 c 35.39225,-2.062222 66.2458,8.994297 96.35256,34.528403 17.82259,15.115662 14.95257,15.356318 36.38776,-3.05116 25.81539,-22.168985 58.8666,-33.321376 92.94108,-31.360891 35.06967,2.017742 62.225,15.159322 87.70669,42.444871 36.38595,38.9617 44.67388,95.12931 21.2294,143.87238 -6.05668,12.59236 -12.56652,20.5657 -42.73104,52.33768 -49.29806,51.92515 -175.03984,174.39539 -179.05399,174.39539 -1.81447,0 -16.51579,-12.51902 -32.66961,-27.82008 z m 27.59331,-10.66968 c 0,-0.2826 -24.05975,-24.34235 -53.46611,-53.46611 l -53.46611,-52.95227 52.95228,53.46611 c 49.2074,49.68488 53.97994,54.36656 53.97994,52.95227 z m 75.95185,-64.91691 c 0,-1.43299 -2.97046,1.4256 -28.01003,26.95514 l -26.95513,27.48257 27.48258,-26.95513 c 15.11542,-14.8253 27.48258,-27.19246 27.48258,-27.48258 z m 137.88198,-180.9131 c 0.0168,-0.82447 -0.86883,-1.49905 -1.96814,-1.49905 -1.0993,0 -1.98496,2.02372 -1.96813,4.49715 0.0248,3.63657 0.40139,3.92343 1.96813,1.49905 1.06565,-1.64895 1.95131,-3.67267 1.96814,-4.49715 z"
     id="path1476"
     inkscape:connector-curvature="0" /><path
     style="opacity:1;fill:#444444;fill-opacity:1;stroke:none;stroke-width:5.19670582;stroke-linecap:round;stroke-linejoin:round;stroke-miterlimit:4;stroke-dasharray:none;stroke-dashoffset:0;stroke-opacity:1"
     d="M 207.47918,419.09937 C 181.22611,394.47428 85.451095,298.34106 44.81721,255.82903 9.5094656,218.88933 -0.13689822,195.92124 1.6732971,153.10295 2.8480858,125.31454 8.1198882,108.30312 22.050426,87.348594 66.287418,20.806658 156.16663,9.7588359 218.33408,63.221694 c 7.54536,6.48886 15.51768,11.797929 17.71629,11.797929 2.1986,0 10.29347,-5.425705 17.98859,-12.057123 27.81365,-23.96894 59.87359,-35.108042 95.21347,-33.081553 34.74807,1.992553 57.34739,12.54839 83.72473,39.10671 26.44393,26.625356 37.83193,53.759403 37.89479,90.291453 0.0512,29.70301 -8.70176,55.69631 -26.22801,77.88893 -20.51524,25.97745 -202.70379,205.75119 -208.51494,205.75119 -1.79037,0 -14.68279,-10.71894 -28.64982,-23.81986 z m 13.58069,-24.6736 c 0,-0.28811 -14.16602,-14.45413 -31.48004,-31.48004 l -31.48005,-30.95618 30.95618,31.48005 c 28.75853,29.2452 32.00391,32.38435 32.00391,30.95617 z m 223.8581,-235.56254 c 0,-1.0993 -0.89943,-1.44286 -1.99874,-0.76345 -1.0993,0.67941 -1.99873,2.13472 -1.99873,3.23402 0,1.0993 0.89943,1.44285 1.99873,0.76345 1.09931,-0.67941 1.99874,-2.13472 1.99874,-3.23402 z"
     id="path1478"
     inkscape:connector-curvature="0" /><path
     style="opacity:1;fill:#444444;fill-opacity:1;stroke:none;stroke-width:5.19670582;stroke-linecap:round;stroke-linejoin:round;stroke-miterlimit:4;stroke-dasharray:none;stroke-dashoffset:0;stroke-opacity:1"
     d="M 211.50605,423.10116 C 189.35104,402.60929 74.406929,287.26562 41.03768,252.04023 9.4624725,218.70867 0.09257552,195.15859 1.6733944,153.10295 2.7147349,125.39944 7.9193323,108.6048 22.050426,87.348594 58.905208,31.911088 131.91684,13.190219 190.68009,44.110364 c 7.36481,3.875224 19.99171,12.444992 28.05977,19.043928 8.06807,6.598937 15.85781,11.998069 17.31051,11.998069 1.4527,0 9.24244,-5.434167 17.3105,-12.075929 29.73637,-24.47944 60.73748,-35.21132 95.89156,-33.195485 34.74807,1.992553 57.34739,12.54839 83.72473,39.10671 26.44393,26.625356 37.83193,53.759403 37.89479,90.291453 0.051,29.61756 -8.64941,55.52933 -26.15272,77.88893 -19.62058,25.06435 -202.7707,205.75119 -208.55613,205.75119 -1.77678,0 -12.87244,-8.91814 -24.65705,-19.81807 z"
     id="path1480"
     inkscape:connector-curvature="0" /><path
     style="opacity:1;fill:#444444;fill-opacity:1;stroke:none;stroke-width:5.19670582;stroke-linecap:round;stroke-linejoin:round;stroke-miterlimit:4;stroke-dasharray:none;stroke-dashoffset:0;stroke-opacity:1"
     d="M 213.52399,425.11416 C 193.10299,406.41733 59.954423,272.79919 36.079028,247.0434 19.979105,229.67547 8.6213147,209.40346 4.0370307,189.85309 -0.84269829,169.04275 0.89482577,134.76257 7.8223074,115.17213 25.779824,64.389519 75.852395,29.181502 130.11752,29.181502 c 31.61126,0 60.80952,11.182173 88.82853,34.019017 8.06517,6.573513 15.80734,11.951842 17.20477,11.951842 1.39746,0 9.14199,-5.434167 17.21005,-12.075929 34.98934,-28.80377 75.40247,-39.513492 116.60461,-30.900925 41.33358,8.640042 81.67169,45.93615 96.20262,88.947713 5.66081,16.75601 5.28559,58.06318 -0.699,76.95122 -8.50255,26.83503 -15.61672,35.94046 -75.51629,96.65333 -75.5385,76.56413 -149.8671,148.19146 -153.78016,148.19146 -1.7609,0 -11.9528,-8.01228 -22.64866,-17.80507 z"
     id="path1482"
     inkscape:connector-curvature="0" /><path
     style="opacity:1;fill:#444444;fill-opacity:1;stroke:none;stroke-width:5.19670582;stroke-linecap:round;stroke-linejoin:round;stroke-miterlimit:4;stroke-dasharray:none;stroke-dashoffset:0;stroke-opacity:1"
     d="M 217.57478,429.16499 C 192.72512,407.11821 30.513222,242.93219 23.820056,233.05227 5.9520492,206.67693 0.41144818,186.67539 1.6733944,153.10295 2.3579421,134.89145 3.6350322,127.01346 7.8223074,115.17213 18.042003,86.271538 42.089176,58.440932 68.816325,44.581687 92.670248,32.212341 101.31779,30.180868 130.11752,30.180868 c 20.15187,0 28.45077,0.840266 36.97656,3.743888 17.30762,5.894444 35.70101,16.239837 51.96706,29.228967 8.24477,6.583802 15.88992,11.970548 16.98923,11.970548 1.0993,0 8.74445,-5.421544 16.98923,-12.047875 45.28279,-36.393812 98.94883,-43.931842 145.90751,-20.494426 19.04644,9.506217 47.9277,37.526971 57.26194,55.55582 11.58615,22.37843 13.67195,31.51884 13.68299,59.96199 0.008,21.3159 -0.78625,28.49687 -4.42294,39.97466 -8.55864,27.01207 -15.47561,35.81572 -77.51502,98.65802 -76.36759,77.35591 -147.80933,146.18677 -151.73188,146.18677 -1.7295,0 -10.12085,-6.18941 -18.64742,-13.75424 z"
     id="path1484"
     inkscape:connector-curvature="0" /><path
     style="opacity:1;fill:#444444;fill-opacity:1;stroke:none;stroke-width:5.19670582;stroke-linecap:round;stroke-linejoin:round;stroke-miterlimit:4;stroke-dasharray:none;stroke-dashoffset:0;stroke-opacity:1"
     d="M 219.61215,431.15047 C 202.25539,416.06733 36.249439,248.95593 26.795396,237.04973 16.849006,224.5235 7.7116492,205.51752 3.9736631,189.57986 -0.39898728,170.93617 1.0858351,135.09757 6.9925512,116.71409 15.909178,88.962872 42.053127,58.459624 68.816325,44.581687 92.670248,32.212341 101.31779,30.180868 130.11752,30.180868 c 20.15187,0 28.45077,0.840266 36.97656,3.743888 17.30762,5.894444 35.70101,16.239837 51.96706,29.228967 8.24477,6.583802 15.88992,11.970548 16.98923,11.970548 1.0993,0 8.74445,-5.386746 16.98923,-11.970548 36.99311,-29.540565 75.341,-39.696192 116.92588,-30.965335 23.83301,5.003805 41.48994,15.183047 62.118,35.811121 29.75434,29.754331 40.11525,56.020871 38.29974,97.095841 -1.12686,25.49484 -5.49183,40.62633 -17.71581,61.41295 -11.11681,18.90395 -208.63224,216.41093 -216.42019,216.41093 -1.70076,0 -9.18655,-5.29594 -16.63507,-11.76876 z"
     id="path1486"
     inkscape:connector-curvature="0" /></svg>