<svg width="30" height="30" viewBox="0 0 30 30" fill="none" xmlns="http://www.w3.org/2000/svg">
<path d="M5.00043 21.25H2.50043V8.75H18.7504V21.25H10.0004" stroke="#4798DE" stroke-width="2" stroke-linecap="square"/>
<path d="M25 21.25H27.5V15.6945L25 11.25H18.75V21.25H20" stroke="#4798DE" stroke-width="2" stroke-linecap="square"/>
<path d="M7.49957 23.75C8.88028 23.75 9.99957 22.6307 9.99957 21.25C9.99957 19.8693 8.88028 18.75 7.49957 18.75C6.11886 18.75 4.99957 19.8693 4.99957 21.25C4.99957 22.6307 6.11886 23.75 7.49957 23.75Z" stroke="#4798DE" stroke-width="2" stroke-linecap="square"/>
<path d="M22.4996 23.75C23.8803 23.75 24.9996 22.6307 24.9996 21.25C24.9996 19.8693 23.8803 18.75 22.4996 18.75C21.1189 18.75 19.9996 19.8693 19.9996 21.25C19.9996 22.6307 21.1189 23.75 22.4996 23.75Z" stroke="#4798DE" stroke-width="2" stroke-linecap="square"/>
</svg>
