<svg width="30" height="30" viewBox="0 0 30 30" fill="none" xmlns="http://www.w3.org/2000/svg">
<path d="M5.00049 21.25H2.50049V8.75H18.7505V21.25H10.0005" stroke="#F1F2F6" stroke-width="2" stroke-linecap="square"/>
<path d="M25 21.25H27.5V15.6945L25 11.25H18.75V21.25H20" stroke="#F1F2F6" stroke-width="2" stroke-linecap="square"/>
<path d="M7.49951 23.75C8.88022 23.75 9.99951 22.6307 9.99951 21.25C9.99951 19.8693 8.88022 18.75 7.49951 18.75C6.1188 18.75 4.99951 19.8693 4.99951 21.25C4.99951 22.6307 6.1188 23.75 7.49951 23.75Z" stroke="#F1F2F6" stroke-width="2" stroke-linecap="square"/>
<path d="M22.4995 23.75C23.8802 23.75 24.9995 22.6307 24.9995 21.25C24.9995 19.8693 23.8802 18.75 22.4995 18.75C21.1188 18.75 19.9995 19.8693 19.9995 21.25C19.9995 22.6307 21.1188 23.75 22.4995 23.75Z" stroke="#F1F2F6" stroke-width="2" stroke-linecap="square"/>
</svg>
