<svg width="30" height="30" viewBox="0 0 30 30" fill="none" xmlns="http://www.w3.org/2000/svg">
<path d="M7.50049 21.25H22.5005M6.25049 13.75L8.75049 6.25H21.2505L23.7505 13.75H6.25049ZM6.25049 13.75H23.7505H6.25049ZM6.25049 13.75V21.25V13.75ZM23.7505 13.75V21.25V13.75ZM6.25049 21.25V23.75H7.50049V21.25H6.25049ZM6.25049 21.25H7.50049H6.25049ZM23.7505 21.25V23.75H22.5005V21.25H23.7505ZM23.7505 21.25H22.5005H23.7505Z" stroke="#F1F2F6" stroke-width="2" stroke-linecap="square"/>
<path d="M9.99951 18.75C10.6899 18.75 11.2495 18.1904 11.2495 17.5C11.2495 16.8096 10.6899 16.25 9.99951 16.25C9.30916 16.25 8.74951 16.8096 8.74951 17.5C8.74951 18.1904 9.30916 18.75 9.99951 18.75Z" stroke="#F1F2F6" stroke-width="2" stroke-linecap="square"/>
<path d="M20 18.75C20.6904 18.75 21.25 18.1904 21.25 17.5C21.25 16.8096 20.6904 16.25 20 16.25C19.3096 16.25 18.75 16.8096 18.75 17.5C18.75 18.1904 19.3096 18.75 20 18.75Z" stroke="#F1F2F6" stroke-width="2" stroke-linecap="square"/>
</svg>
